<svg xmlns="http://www.w3.org/2000/svg" viewBox="0 0 32 32" width="32" height="32">
  <defs>
    <linearGradient id="grad1" x1="0%" y1="0%" x2="100%" y2="100%">
      <stop offset="0%" style="stop-color:#3b82f6;stop-opacity:1" />
      <stop offset="100%" style="stop-color:#1d4ed8;stop-opacity:1" />
    </linearGradient>
  </defs>
  
  <!-- Background circle -->
  <circle cx="16" cy="16" r="15" fill="url(#grad1)" stroke="#1e40af" stroke-width="1"/>
  
  <!-- Stylized "G" for Glidzr -->
  <path d="M 12 8 
           C 9 8 7 10 7 13 
           L 7 19 
           C 7 22 9 24 12 24 
           L 20 24 
           C 23 24 25 22 25 19 
           L 25 16 
           L 19 16 
           L 19 18 
           L 21 18 
           L 21 19 
           C 21 20 20 21 19 21 
           L 13 21 
           C 12 21 11 20 11 19 
           L 11 13 
           C 11 12 12 11 13 11 
           L 19 11 
           C 20 11 21 12 21 13 
           L 24 13 
           C 24 10 22 8 19 8 
           Z" 
        fill="white" 
        stroke="rgba(255,255,255,0.2)" 
        stroke-width="0.5"/>
  
  <!-- Organization lines accent -->
  <line x1="6" y1="6" x2="10" y2="6" stroke="rgba(255,255,255,0.4)" stroke-width="1" stroke-linecap="round"/>
  <line x1="22" y1="26" x2="26" y2="26" stroke="rgba(255,255,255,0.4)" stroke-width="1" stroke-linecap="round"/>
  <line x1="26" y1="6" x2="26" y2="10" stroke="rgba(255,255,255,0.4)" stroke-width="1" stroke-linecap="round"/>
  <line x1="6" y1="22" x2="6" y2="26" stroke="rgba(255,255,255,0.4)" stroke-width="1" stroke-linecap="round"/>
</svg>
